REM DIRINDEX 1\2\6,1\2\7,1\2\8,1\2\9,1\3\10,1\3\11,1\4\12,1\4\13,1\4\14,1\5\15,1\5\16,1\5\17
REM DIRNAME cjc020,folder01,folder02,folder03,folder04,folder05,folder06,folder07,folder08,folder09,folder10,folder11,folder12,folder13,folder14,folder15,folder16
TITLE ""
FILE "1900_3_108 sec19_1837_1856.mp3" MP3
  TRACK 01 AUDIO
    TITLE "0:"
    INDEX 01 00:00:00
  TRACK 02 AUDIO
    TITLE "17:cjc020_9660"
    INDEX 01 00:00:13
  TRACK 03 AUDIO
    TITLE "0:"
    INDEX 01 00:01:22
  TRACK 04 AUDIO
    TITLE "16:cjc020_9661"
    INDEX 01 00:01:24
  TRACK 05 AUDIO
    TITLE "0:"
    INDEX 01 00:02:45
  TRACK 06 AUDIO
    TITLE "17:cjc020_9662"
    INDEX 01 00:03:31
  TRACK 07 AUDIO
    TITLE "0:"
    INDEX 01 00:04:48
  TRACK 08 AUDIO
    TITLE "16:cjc020_9663"
    INDEX 01 00:04:54
  TRACK 09 AUDIO
    TITLE "0:"
    INDEX 01 00:06:20
  TRACK 10 AUDIO
    TITLE "17:cjc020_9664"
    INDEX 01 00:07:03
  TRACK 11 AUDIO
    TITLE "0:"
    INDEX 01 00:08:15
  TRACK 12 AUDIO
    TITLE "16:cjc020_9665"
    INDEX 01 00:08:23
  TRACK 13 AUDIO
    TITLE "0:"
    INDEX 01 00:09:47
  TRACK 14 AUDIO
    TITLE "17:cjc020_9666"
    INDEX 01 00:10:31
  TRACK 15 AUDIO
    TITLE "0:"
    INDEX 01 00:11:35
  TRACK 16 AUDIO
    TITLE "16:cjc020_9667"
    INDEX 01 00:11:39
  TRACK 17 AUDIO
    TITLE "0:"
    INDEX 01 00:12:40
  TRACK 18 AUDIO
    TITLE "17:cjc020_9668"
    INDEX 01 00:13:28
  TRACK 19 AUDIO
    TITLE "0:"
    INDEX 01 00:15:03
  TRACK 20 AUDIO
    TITLE "16:cjc020_9669"
    INDEX 01 00:15:17
  TRACK 21 AUDIO
    TITLE "0:"
    INDEX 01 00:16:28
  TRACK 22 AUDIO
    TITLE "17:cjc020_9670"
    INDEX 01 00:17:14
  TRACK 23 AUDIO
    TITLE "0:"
    INDEX 01 00:18:15
  TRACK 24 AUDIO
    TITLE "16:cjc020_9671"
    INDEX 01 00:18:17
  TRACK 25 AUDIO
    TITLE "0:"
    INDEX 01 00:19:40
  TRACK 26 AUDIO
    TITLE "17:cjc020_9672"
    INDEX 01 00:20:24
  TRACK 27 AUDIO
    TITLE "0:"
    INDEX 01 00:23:40
  TRACK 28 AUDIO
    TITLE "16:cjc020_9673"
    INDEX 01 00:23:50
  TRACK 29 AUDIO
    TITLE "0:"
    INDEX 01 00:24:63
  TRACK 30 AUDIO
    TITLE "17:cjc020_9674"
    INDEX 01 00:25:48
  TRACK 31 AUDIO
    TITLE "0:"
    INDEX 01 00:27:59
  TRACK 32 AUDIO
    TITLE "16:cjc020_9675"
    INDEX 01 00:27:61
  TRACK 33 AUDIO
    TITLE "0:"
    INDEX 01 00:29:15
  TRACK 34 AUDIO
    TITLE "17:cjc020_9676"
    INDEX 01 00:29:74
  TRACK 35 AUDIO
    TITLE "0:"
    INDEX 01 00:31:14
  TRACK 36 AUDIO
    TITLE "16:cjc020_9677"
    INDEX 01 00:31:24
  TRACK 37 AUDIO
    TITLE "0:"
    INDEX 01 00:32:33
  TRACK 38 AUDIO
    TITLE "17:cjc020_9678"
    INDEX 01 00:33:19
  TRACK 39 AUDIO
    TITLE "0:"
    INDEX 01 00:34:28
  TRACK 40 AUDIO
    TITLE "16:cjc020_9679"
    INDEX 01 00:34:36
  TRACK 41 AUDIO
    TITLE "0:"
    INDEX 01 00:35:43
  TRACK 42 AUDIO
    TITLE "17:cjc020_9680"
    INDEX 01 00:36:29
  TRACK 43 AUDIO
    TITLE "0:"
    INDEX 01 00:37:40
  TRACK 44 AUDIO
    TITLE "16:cjc020_9681"
    INDEX 01 00:37:48
  TRACK 45 AUDIO
    TITLE "0:"
    INDEX 01 00:38:51
  TRACK 46 AUDIO
    TITLE "17:cjc020_9682"
    INDEX 01 00:39:37
  TRACK 47 AUDIO
    TITLE "0:"
    INDEX 01 00:40:50
  TRACK 48 AUDIO
    TITLE "16:cjc020_9683"
    INDEX 01 00:40:58
  TRACK 49 AUDIO
    TITLE "0:"
    INDEX 01 00:41:61
  TRACK 50 AUDIO
    TITLE "17:cjc020_9684"
    INDEX 01 00:42:47
  TRACK 51 AUDIO
    TITLE "0:"
    INDEX 01 00:43:58
  TRACK 52 AUDIO
    TITLE "16:cjc020_9685"
    INDEX 01 00:43:62
  TRACK 53 AUDIO
    TITLE "0:"
    INDEX 01 00:45:04
  TRACK 54 AUDIO
    TITLE "17:cjc020_9686"
    INDEX 01 00:45:63
  TRACK 55 AUDIO
    TITLE "0:"
    INDEX 01 00:47:03
  TRACK 56 AUDIO
    TITLE "16:cjc020_9687"
    INDEX 01 00:47:13
  TRACK 57 AUDIO
    TITLE "0:"
    INDEX 01 00:48:16
  TRACK 58 AUDIO
    TITLE "17:cjc020_9688"
    INDEX 01 00:48:73
  TRACK 59 AUDIO
    TITLE "0:"
    INDEX 01 00:50:15
  TRACK 60 AUDIO
    TITLE "16:cjc020_9689"
    INDEX 01 00:50:19
  TRACK 61 AUDIO
    TITLE "0:"
    INDEX 01 00:51:32
  TRACK 62 AUDIO
    TITLE "17:cjc020_9690"
    INDEX 01 00:52:14
  TRACK 63 AUDIO
    TITLE "0:"
    INDEX 01 00:53:27
  TRACK 64 AUDIO
    TITLE "16:cjc020_9691"
    INDEX 01 00:53:29
  TRACK 65 AUDIO
    TITLE "0:"
    INDEX 01 00:54:52
  TRACK 66 AUDIO
    TITLE "17:cjc020_9692"
    INDEX 01 00:55:40
  TRACK 67 AUDIO
    TITLE "0:"
    INDEX 01 00:56:41
  TRACK 68 AUDIO
    TITLE "16:cjc020_9693"
    INDEX 01 00:56:47
  TRACK 69 AUDIO
    TITLE "0:"
    INDEX 01 00:57:60
  TRACK 70 AUDIO
    TITLE "17:cjc020_9694"
    INDEX 01 00:58:42
  TRACK 71 AUDIO
    TITLE "0:"
    INDEX 01 00:59:41
  TRACK 72 AUDIO
    TITLE "16:cjc020_9695"
    INDEX 01 00:59:49
  TRACK 73 AUDIO
    TITLE "0:"
    INDEX 01 01:00:53
  TRACK 74 AUDIO
    TITLE "17:cjc020_9696"
    INDEX 01 01:01:38
  TRACK 75 AUDIO
    TITLE "0:"
    INDEX 01 01:04:00
  TRACK 76 AUDIO
    TITLE "16:cjc020_9697"
    INDEX 01 01:04:05
  TRACK 77 AUDIO
    TITLE "0:"
    INDEX 01 01:05:05
  TRACK 78 AUDIO
    TITLE "17:cjc020_9698"
    INDEX 01 01:05:68
  TRACK 79 AUDIO
    TITLE "0:"
    INDEX 01 01:06:67
  TRACK 80 AUDIO
    TITLE "16:cjc020_9699"
    INDEX 01 01:07:00
  TRACK 81 AUDIO
    TITLE "0:"
    INDEX 01 01:08:07
